<svg xmlns="http://www.w3.org/2000/svg" width="280" height="4"><path fill="#f4f4f4" fill-opacity="1" fill-rule="evenodd" d="M0 4a2 2 0 1 1 0-4 2 2 0 0 1 0 4zm280 0a2 2 0 1 1 0-4 2 2 0 0 1 0 4zm-17 0a2 2 0 1 1 0-4 2 2 0 0 1 0 4zm-35 0a2 2 0 1 1 0-4 2 2 0 0 1 0 4zm-35 0a2 2 0 1 1 0-4 2 2 0 0 1 0 4zm-35 0a2 2 0 1 1 0-4 2 2 0 0 1 0 4zm-18 0a2 2 0 1 1 0-4 2 2 0 0 1 0 4zm-17 0a2 2 0 1 1 0-4 2 2 0 0 1 0 4zm122 0a2 2 0 1 1 0-4 2 2 0 0 1 0 4zm-35 0a2 2 0 1 1 0-4 2 2 0 0 1 0 4zm-35 0a2 2 0 1 1 0-4 2 2 0 0 1 0 4zm-70 0a2 2 0 1 1 0-4 2 2 0 0 1 0 4zM88 4a2 2 0 1 1 0-4 2 2 0 0 1 0 4zM70 4a2 2 0 1 1 0-4 2 2 0 0 1 0 4zM53 4a2 2 0 1 1 0-4 2 2 0 0 1 0 4zM35 4a2 2 0 1 1 0-4 2 2 0 0 1 0 4zM18 4a2 2 0 1 1 0-4 2 2 0 0 1 0 4z"/></svg>